<svg width="49" height="48" viewBox="0 0 49 48" fill="none" xmlns="http://www.w3.org/2000/svg">
<path d="M5.28003 24C5.28003 15.0433 5.28003 10.565 8.06251 7.78248C10.845 5 15.3233 5 24.28 5C33.2366 5 37.715 5 40.4976 7.78248C43.28 10.565 43.28 15.0433 43.28 24C43.28 32.9566 43.28 37.435 40.4976 40.2176C37.715 43 33.2366 43 24.28 43C15.3233 43 10.845 43 8.06251 40.2176C5.28003 37.435 5.28003 32.9566 5.28003 24Z" stroke="#03050D" stroke-width="3" stroke-linejoin="round"/>
<path d="M34.133 16.0527H28.2432C26.1556 16.0527 24.4588 17.7369 24.4434 19.8246L24.2728 42.8536M20.444 28.0034H30.0494" stroke="#03050D" stroke-width="3" stroke-linecap="round" stroke-linejoin="round"/>
</svg>
