<svg width="49" height="48" viewBox="0 0 49 48" fill="none" xmlns="http://www.w3.org/2000/svg">
<path d="M14.28 20V34" stroke="#03050D" stroke-width="3" stroke-linecap="round" stroke-linejoin="round"/>
<path d="M22.28 26V34M22.28 26C22.28 22.6862 24.9662 20 28.28 20C31.5938 20 34.28 22.6862 34.28 26V34M22.28 26V20" stroke="#03050D" stroke-width="3" stroke-linecap="round" stroke-linejoin="round"/>
<path d="M14.2961 14H14.2781" stroke="#03050D" stroke-width="3" stroke-linecap="round" stroke-linejoin="round"/>
<path d="M5.28003 24C5.28003 15.0433 5.28003 10.565 8.06251 7.78248C10.845 5 15.3233 5 24.28 5C33.2366 5 37.715 5 40.4976 7.78248C43.28 10.565 43.28 15.0433 43.28 24C43.28 32.9566 43.28 37.435 40.4976 40.2176C37.715 43 33.2366 43 24.28 43C15.3233 43 10.845 43 8.06251 40.2176C5.28003 37.435 5.28003 32.9566 5.28003 24Z" stroke="#03050D" stroke-width="3" stroke-linejoin="round"/>
</svg>
