<svg width="49" height="48" viewBox="0 0 49 48" fill="none" xmlns="http://www.w3.org/2000/svg">
<path d="M5.28027 24C5.28027 15.0433 5.28027 10.565 8.06275 7.78248C10.8452 5 15.3236 5 24.2802 5C33.237 5 37.7152 5 40.4978 7.78248C43.2802 10.565 43.2802 15.0433 43.2802 24C43.2802 32.9566 43.2802 37.435 40.4978 40.2176C37.7152 43 33.237 43 24.2802 43C15.3236 43 10.8452 43 8.06275 40.2176C5.28027 37.435 5.28027 32.9566 5.28027 24Z" stroke="#03050D" stroke-width="3" stroke-linecap="round" stroke-linejoin="round"/>
<path d="M14.2803 34L22.6674 25.613M22.6674 25.613L14.2803 14H19.8358L25.8932 22.387M22.6674 25.613L28.7246 34H34.2802L25.8932 22.387M34.2802 14L25.8932 22.387" stroke="#03050D" stroke-width="3" stroke-linecap="round" stroke-linejoin="round"/>
</svg>
